<svg width="204" height="207" viewBox="0 0 204 207" fill="none" xmlns="http://www.w3.org/2000/svg">
<path d="M102 204C158.333 204 204 158.333 204 102C204 45.667 158.333 0 102 0C45.667 0 0 45.667 0 102C0 158.333 45.667 204 102 204Z" fill="url(#paint0_linear_5263_22723)" fillOpacity="0.5"/>
<g filter="url(#filter0_d_5263_22723)">
<path fill-rule="evenodd" clipRule="evenodd" d="M56.9268 66C53.613 66 50.9268 68.6863 50.9268 72V165.073C50.9268 168.387 53.6131 171.073 56.9268 171.073H91.7519L102.951 182.712L114.151 171.073H150C153.314 171.073 156 168.387 156 165.073V72C156 68.6863 153.314 66 150 66H56.9268Z" fill="white"/>
</g>
<path d="M83.7556 145H123.244C126.726 145 129.953 143.255 131.652 140.265C133.435 137.274 133.435 133.702 131.737 130.712L111.95 96.8182C110.166 93.8276 107.024 92 103.458 92C99.8908 92 96.7487 93.8276 94.9653 96.8182L75.2634 130.712C73.565 133.702 73.565 137.274 75.3483 140.265C77.0468 143.255 80.1889 145 83.7556 145ZM80.3587 133.619L100.061 99.7257C100.74 98.5627 102.014 97.815 103.373 97.815C104.731 97.815 106.005 98.5627 106.685 99.7257L126.387 133.619C127.406 135.281 126.726 136.776 126.387 137.357C126.047 137.939 125.028 139.185 123.075 139.185H83.7556C81.8024 139.185 80.7833 137.856 80.4437 137.357C80.104 136.859 79.4246 135.281 80.3587 133.619Z" fill="url(#paint1_linear_5263_22723)"/>
<path d="M106 115H100V134H106V115Z" fill="url(#paint2_linear_5263_22723)"/>
<path d="M106 109H100V113H106V109Z" fill="url(#paint3_linear_5263_22723)"/>
<defs>
<filter id="filter0_d_5263_22723" x="30.9268" y="50" width="145.073" height="156.713" filterUnits="userSpaceOnUse" color-interpolation-filters="sRGB">
<feFlood flood-opacity="0" result="BackgroundImageFix"/>
<feColorMatrix in="SourceAlpha" type="matrix" values="0 0 0 0 0 0 0 0 0 0 0 0 0 0 0 0 0 0 127 0" result="hardAlpha"/>
<feOffset dy="4"/>
<feGaussianBlur stdDeviation="10"/>
<feComposite in2="hardAlpha" operator="out"/>
<feColorMatrix type="matrix" values="0 0 0 0 0.101961 0 0 0 0 0.384314 0 0 0 0 0.94902 0 0 0 0.15 0"/>
<feBlend mode="normal" in2="BackgroundImageFix" result="effect1_dropShadow_5263_22723"/>
<feBlend mode="normal" in="SourceGraphic" in2="effect1_dropShadow_5263_22723" result="shape"/>
</filter>
<linearGradient id="paint0_linear_5263_22723" x1="102" y1="-2.99487e-08" x2="101.498" y2="148.227" gradientUnits="userSpaceOnUse">
<stop stop-color="#1A62F2" stop-opacity="0.5"/>
<stop offset="1" stop-color="white" stop-opacity="0"/>
</linearGradient>
<linearGradient id="paint1_linear_5263_22723" x1="103.5" y1="92" x2="103.5" y2="145" gradientUnits="userSpaceOnUse">
<stop stop-color="#1A62F2"/>
<stop offset="1" stop-color="#9BBCFF"/>
</linearGradient>
<linearGradient id="paint2_linear_5263_22723" x1="103" y1="115" x2="103" y2="134" gradientUnits="userSpaceOnUse">
<stop stop-color="#1A62F2"/>
<stop offset="1" stop-color="#9BBCFF"/>
</linearGradient>
<linearGradient id="paint3_linear_5263_22723" x1="103" y1="109" x2="103" y2="113" gradientUnits="userSpaceOnUse">
<stop stop-color="#1A62F2"/>
<stop offset="1" stop-color="#9BBCFF"/>
</linearGradient>
</defs>
</svg>
