<svg xmlns="http://www.w3.org/2000/svg" xmlns:xlink="http://www.w3.org/1999/xlink" height="40" width="140" xmlns:v="https://vecta.io/nano"><defs><path id="A" d="M30.07.86C27.821.34 24.123 0 19.943 0S12.065.34 9.816.86C5.331 1.804 1.799 5.346.858 9.844.339 12.1 0 15.808 0 20s.339 7.9.858 10.156c.941 4.498 4.473 8.04 8.958 8.984 2.249.521 5.947.86 10.127.86s7.878-.34 10.127-.86c4.485-.944 8.017-4.486 8.958-8.984.519-2.256.858-5.964.858-10.156s-.339-7.9-.858-10.156c-.941-4.498-4.473-8.04-8.958-8.984z"/><mask id="B" fill="#fff"><use fill="#fff" fill-rule="evenodd" xlink:href="#A"/></mask></defs><g fill-rule="evenodd"><use fill="#00b388" xlink:href="#A"/><path d="M24.735 30.705c-.378-.903-1.182-1.584-2.159-1.789-.585-.135-1.546-.224-2.633-.224s-2.048.088-2.633.224c-.97.204-1.769.876-2.151 1.77-.132.31-.45.499-.785.468l-.215-.021c-1.564-.156-2.793-.374-3.507-.628a1.27 1.27 0 0 1-.825-1.19v-.04l.004-.067.004-.057c.122-1.632 1.11-5.454 2.587-9.816 1.688-4.987 3.453-9.024 4.249-9.811a1.71 1.71 0 0 1 .436-.329c.063-.036.143-.071.239-.104.53-.18 1.494-.299 2.597-.299s2.068.119 2.591.296c.104.036.184.07.247.106a1.71 1.71 0 0 1 .435.328c.797.789 2.562 4.826 4.25 9.813 1.476 4.362 2.465 8.184 2.587 9.816 0 .013.001.027.003.041l.005.082.001.04a1.27 1.27 0 0 1-.82 1.188c-.718.256-1.946.474-3.508.63l-.246.023h0a.74.74 0 0 1-.75-.451z" fill="#fff" fill-rule="nonzero" mask="url(#B)"/><path d="M63.708 13.326h3.812v16.68h-3.812v-2.931c-1.191 2.079-3.233 3.272-5.887 3.272-4.424 0-7.963-3.885-7.963-8.69S53.397 13 57.821 13c2.654 0 4.696 1.193 5.887 3.272zm57.064 0h3.812v16.68h-3.812v-2.931c-1.191 2.079-3.233 3.272-5.887 3.272-4.424 0-7.963-3.885-7.963-8.69S110.461 13 114.885 13c2.654 0 4.696 1.193 5.887 3.272zm-62.05 13.396c2.893 0 5.071-2.181 5.071-5.078 0-2.863-2.178-5.044-5.071-5.044-2.825 0-5.071 2.249-5.071 5.044 0 2.829 2.246 5.078 5.071 5.078zm56.864 0c2.893 0 5.071-2.181 5.071-5.078 0-2.863-2.178-5.044-5.071-5.044-2.825 0-5.071 2.249-5.071 5.044 0 2.829 2.246 5.078 5.071 5.078zM73.227 5c1.327 0 2.45 1.125 2.45 2.42 0 1.363-1.123 2.454-2.45 2.454S70.81 8.783 70.81 7.42c0-1.295 1.089-2.42 2.416-2.42zm-1.872 8.28h3.777v16.68h-3.777zm15.643-.326c.728 0 1.428.108 1.934.301a7.35 7.35 0 0 1 .763.344l-1.537 3.223a5.32 5.32 0 0 0-1.534-.221c-1.838 0-3.88 1.534-3.88 4.464v8.895h-3.777V13.28h3.777v2.4c.749-1.602 2.62-2.726 4.254-2.726zm18.972 12.78c-1.259 2.76-4.186 4.567-7.657 4.567-4.935 0-8.712-3.715-8.712-8.656s3.743-8.69 8.678-8.69c3.233 0 5.955 1.602 7.181 4.056l-3.199 1.806c-.681-1.329-2.178-2.215-3.982-2.215-2.859 0-4.935 2.181-4.935 5.044 0 2.829 2.11 5.01 4.969 5.01 1.94 0 3.539-.92 4.288-2.454zM132.196 5v24.96h-3.777V5zm7.612 0v24.96h-3.777V5z" fill="#101820"/></g></svg>