<svg xmlns="http://www.w3.org/2000/svg" xmlns:xlink="http://www.w3.org/1999/xlink" width="255" height="247" fill="none" xmlns:v="https://vecta.io/nano"><path d="M239.191 224.436L224.266 18.687c-1.122-15.445-18.531-23.885-31.362-15.192l-170.729 115.8c-12.815 8.693-11.414 28.004 2.523 34.756l185.632 89.945c13.963 6.756 29.987-4.122 28.862-19.561z" fill="url(#A)"/><path d="M148.404 110.486c-11.265-.371-20.676-9.005-22.266-20.433l-3.992-28.657 15.013-2.094c1.131-.133 5.868-.566 10.12 2.724 1.691 1.3 3.115 3.075 4.337 5.715 2.393 5.169 12.523 31.96 1.443 40.588-1.372 1.057-2.962 1.793-4.655 2.156zm48.128 133.895h-90.215l-7.289-109.883a180.56 180.56 0 0 1 39.685-12.162c19.506-3.576 34.955-3.726 48.918-1.99l8.901 124.035z" fill="#000"/><path d="M147.572 109.406l-3.576-9.815c3.521-.143 6.336-3.202 6.336-6.967 0-3.859-2.949-6.983-6.59-6.983a6.35 6.35 0 0 0-4.226 1.626l-6.733-18.501-27.604 8.885c-1.279.411-2.465 1.07-3.49 1.94s-1.867 1.933-2.481 3.128a10.23 10.23 0 0 0-.635 7.806l7.477 23.234a13.98 13.98 0 0 0 17.572 9.012l4.015-1.794 3.355 7.171c.144.317.395.574.709.725 5.829 2.803 12.334 2.117 16.339-1.625 2.767-2.578 4.298-4.9 4.74-6.418a1.49 1.49 0 0 0-.107-1.063l-5.101-10.361z" fill="#fff"/><g fill="#000"><path d="M127.643 120.989l12.1-5.526c.081-.035.17-.042.255-.019a.38.38 0 0 1 .21.146c.051.071.077.157.072.245s-.039.17-.098.236l-9.883 10.598-2.656-5.68zm15.546-25.478a2.36 2.36 0 0 1-1.313-.397c-.39-.259-.693-.628-.872-1.06s-.227-.907-.136-1.366a2.36 2.36 0 0 1 1.856-1.859c.458-.091.934-.045 1.366.134a2.37 2.37 0 0 1 1.061.87 2.36 2.36 0 0 1 .399 1.314c0 .626-.249 1.227-.691 1.67a2.36 2.36 0 0 1-1.67.693zm0-3.423a1.06 1.06 0 0 0-.984.655 1.07 1.07 0 0 0-.062.615c.041.206.143.396.292.545a1.06 1.06 0 0 0 1.16.23 1.06 1.06 0 0 0 .476-.393c.117-.175.179-.381.178-.592a1.06 1.06 0 0 0-1.06-1.06z"/><path d="M141.525 94.195a.65.65 0 0 1-.65-.575c-.166-1.408.156-2.546.956-3.388 1.502-1.583 4.135-1.437 4.245-1.43a.65.65 0 0 1 .61.691c-.011.172-.09.334-.219.448a.65.65 0 0 1-.472.162c-.019 0-2.145-.114-3.225 1.027-.526.556-.722 1.32-.605 2.341.02.171-.029.342-.136.477a.65.65 0 0 1-.432.242l-.072.006zm-23.957 18.209a5.3 5.3 0 0 1-2.422-.553.65.65 0 0 1-.214-.874c.084-.145.221-.252.382-.299s.334-.029.483.048 3.494 1.893 6.918-2.942c.047-.074.109-.138.182-.187a.65.65 0 0 1 .241-.101c.086-.016.175-.016.261.003a.65.65 0 0 1 .507.542.65.65 0 0 1-.015.26c-.023.085-.062.165-.117.234-2.22 3.138-4.535 3.869-6.206 3.869zm3.993-17.406c.786 0 1.424-.638 1.424-1.424s-.638-1.424-1.424-1.424-1.424.637-1.424 1.424.637 1.424 1.424 1.424zm-16.668 6.031c.786 0 1.424-.638 1.424-1.424s-.638-1.424-1.424-1.424-1.424.638-1.424 1.424.637 1.424 1.424 1.424zm-.361 6.372c-3.267 0-6.301-2.633-7.084-6.388-.884-4.227 1.414-8.297 5.12-9.074.918-.182 1.864-.162 2.773.059a6.44 6.44 0 0 1 2.491 1.219c1.586 1.24 2.674 3.009 3.065 4.984.433 1.966.145 4.022-.813 5.793a6.45 6.45 0 0 1-1.793 2.116 6.44 6.44 0 0 1-2.517 1.164c-.409.084-.825.127-1.242.127zm-.712-14.304a4.82 4.82 0 0 0-.975.104c-3.008.627-4.854 4.008-4.116 7.532s3.784 5.881 6.788 5.254a5.15 5.15 0 0 0 2.012-.94c.594-.456 1.081-1.036 1.427-1.7.803-1.497 1.041-3.232.67-4.889a7.07 7.07 0 0 0-2.578-4.226 5.32 5.32 0 0 0-3.228-1.122v-.013z"/><path d="M110.816 98.457a.65.65 0 0 1-.638-.55c-.024-.152.007-.308.088-.44a.65.65 0 0 1 .352-.278l5.871-1.892a.65.65 0 0 1 .473.063c.144.08.252.212.303.369s.039.327-.031.476-.195.266-.348.327l-5.868 1.895c-.066.019-.134.029-.202.029z"/><path d="M113.736 105.395c-.332.008-.662-.055-.966-.187a2.29 2.29 0 0 1-.797-.577c-.65-.79-.539-1.873-.23-2.559.22-.481.577-.886 1.027-1.164l-2.676-7.152a.65.65 0 0 1 1.216-.456l3.121 8.319-.65.215c-.187.061-.359.16-.507.289a1.45 1.45 0 0 0-.354.465c-.118.257-.257.835.039 1.187s.975.455 1.606.048c.071-.052.152-.09.238-.11a.64.64 0 0 1 .506.091c.074.049.137.112.185.186a.67.67 0 0 1 .097.244.66.66 0 0 1-.008.262.64.64 0 0 1-.111.238.63.63 0 0 1-.196.175 2.84 2.84 0 0 1-1.54.485zm5.017-25.481c8.228-1.721 13.866-8.055 12.592-14.148s-8.978-9.638-17.206-7.917-13.866 8.055-12.592 14.148 8.977 9.638 17.206 7.917z"/><path d="M143.853 79.962l-8.157 2.12a8.65 8.65 0 0 1-10.546-6.196l-1.72-6.619 16.528-4.294 3.895 14.99zm-45.8 8.304c6.147 0 11.131-4.984 11.131-11.131S104.2 66.003 98.053 66.003s-11.131 4.984-11.131 11.131 4.984 11.131 11.131 11.131zm30.358 3.871a.65.65 0 0 1-.641-.528c-.028-.149-.004-.303.069-.436a.65.65 0 0 1 .331-.291l12.172-4.876a.65.65 0 0 1 .513-.014c.082.033.157.082.219.144a.63.63 0 0 1 .144.219c.033.082.049.17.046.258a.66.66 0 0 1-.059.255.65.65 0 0 1-.156.211.64.64 0 0 1-.226.132l-12.172 4.877a.68.68 0 0 1-.24.049z"/></g><path d="M82.448 195.749l-2.845 37.991.998 9.321h25.628l-3.05-45.986-20.731-1.326z" fill="#fff"/><g fill="#000"><path d="M106.925 243.711H80.016l-1.063-9.961 2.897-38.687 21.941 1.402 3.134 47.246zm-25.738-1.3h24.346l-2.965-44.724-19.506-1.248-2.806 37.292.93 8.68z"/><path d="M99.028 134.501c-1.091.441-2.141.979-3.137 1.606-7.445 4.694-9.896 13.329-11.782 21.752-2.003 8.957-4.951 29.562-5.985 45.563l25.579 1.547-4.675-70.468z"/><use xlink:href="#B"/><path d="M53.478 166.078H21.125c-.652-.001-1.277-.26-1.738-.721s-.721-1.085-.723-1.737v-4.6c.001-.653.26-1.278.722-1.74a2.46 2.46 0 0 1 1.739-.721h32.354a2.46 2.46 0 0 1 1.739.721c.461.462.721 1.087.722 1.74v4.603c-.002.651-.263 1.275-.724 1.735s-1.086.719-1.737.72zm-32.354-8.222c-.152 0-.303.03-.444.088s-.269.144-.377.252-.193.235-.252.376-.088.292-.088.444v4.604a1.16 1.16 0 0 0 1.161 1.157h32.354a1.16 1.16 0 0 0 1.161-1.157v-4.6a1.16 1.16 0 0 0-1.161-1.161l-32.354-.003z"/></g><path d="M53.475 148.467H21.125a1.81 1.81 0 0 0-1.811 1.811v4.6a1.81 1.81 0 0 0 1.811 1.811h32.351a1.81 1.81 0 0 0 1.811-1.811v-4.6a1.81 1.81 0 0 0-1.811-1.811z" fill="#ffbb45"/><path d="M61.973 165.915h-4.607a2.46 2.46 0 0 1-2.458-2.458v-26.791a2.46 2.46 0 0 1 2.458-2.458h4.607a2.46 2.46 0 0 1 2.458 2.458v26.791a2.46 2.46 0 0 1-2.458 2.458zm-4.607-30.397a1.16 1.16 0 0 0-1.157 1.158v26.791a1.16 1.16 0 0 0 1.157 1.157h4.607a1.16 1.16 0 0 0 1.157-1.157v-26.801a1.16 1.16 0 0 0-1.157-1.158l-4.607.01z" fill="#000"/><path d="M70.77 134.858h-4.6a1.81 1.81 0 0 0-1.811 1.811v26.788a1.81 1.81 0 0 0 1.811 1.811h4.6a1.81 1.81 0 0 0 1.811-1.811v-26.788a1.81 1.81 0 0 0-1.811-1.811z" fill="#ffc1eb"/><path d="M138.957 138.609a22.79 22.79 0 0 1-12.152-3.647c-.138-.097-.232-.244-.263-.409s.002-.336.094-.476a.65.65 0 0 1 .877-.204c2.019 1.3 7.478 4.265 14.379 3.215 9.516-1.443 14.23-9.171 15.078-10.706.04-.078.094-.147.161-.204s.144-.099.228-.125a.65.65 0 0 1 .259-.026.66.66 0 0 1 .248.077.67.67 0 0 1 .198.169.66.66 0 0 1 .116.232.65.65 0 0 1-.072.505c-.9 1.625-5.903 9.828-16.021 11.362a20.5 20.5 0 0 1-3.13.237z" fill="#fff"/><path d="M115.34 142.474l-14.899 3.922a3.68 3.68 0 0 0-2.622 4.496l7.988 30.341a3.68 3.68 0 0 0 4.496 2.622l14.899-3.922c1.965-.518 3.139-2.531 2.622-4.496l-7.989-30.342a3.68 3.68 0 0 0-4.495-2.621z" fill="#ffc1eb"/><path d="M115.046 147.769l-.248.055c-.801.18-1.304.974-1.125 1.775l1.456 6.49c.18.801.974 1.305 1.775 1.125l.247-.055c.801-.18 1.304-.975 1.125-1.775l-1.456-6.491c-.179-.8-.974-1.304-1.774-1.124z" fill="#fff"/><path d="M122.63 100.622c-3.251 0-6.238-2.529-6.996-6.148-.848-4.093 1.469-8.046 5.182-8.826s7.422 1.921 8.277 6.014-1.466 8.053-5.175 8.827c-.424.089-.855.134-1.288.133zm-.536-13.807c-.342-.001-.683.034-1.018.104-3.007.631-4.876 3.901-4.168 7.289s3.729 5.637 6.736 5.01 4.877-3.901 4.168-7.289c-.63-3.007-3.069-5.114-5.712-5.114h-.006z" fill="#000"/><path d="M200.758 48.115h-26.912a7.09 7.09 0 0 0-7.087 7.087v25.28a7.09 7.09 0 0 0 7.087 7.087h26.912a7.09 7.09 0 0 0 7.087-7.087v-25.28a7.09 7.09 0 0 0-7.087-7.087z" fill="#fff"/><path d="M196.62 59.768h-18.638c-1.566 0-2.835 1.269-2.835 2.835v15.79c0 1.566 1.269 2.835 2.835 2.835h18.638c1.565 0 2.834-1.269 2.834-2.835v-15.79c0-1.566-1.269-2.835-2.834-2.835z" fill="#ffc1eb"/><g fill="#fb6d6d"><path d="M199.454 67.436h-24.307a.65.65 0 1 1 0-1.3h24.307a.65.65 0 1 1 0 1.3zM188.3 60.42h-1.008c-5.988 0-7.704-2.084-8.091-3.833-.072-.32-.074-.653-.006-.974a2.29 2.29 0 0 1 1.138-1.525 2.28 2.28 0 0 1 .935-.272c3.869-.263 6.502 5.442 6.616 5.686l.416.917zm-6.781-5.309h-.163a.98.98 0 0 0-.709.39.97.97 0 0 0-.176.382.98.98 0 0 0 .001.421c.361 1.645 2.383 2.617 5.735 2.786-.927-1.622-2.715-3.982-4.679-3.982l-.009.003z"/><path d="M187.218 60.42h-1.008l.416-.917c.11-.244 2.747-5.949 6.616-5.686a2.28 2.28 0 0 1 .935.272c.288.157.539.374.736.638a2.29 2.29 0 0 1 .402.887c.068.321.066.653-.006.974-.387 1.746-2.103 3.833-8.091 3.833zm5.773-5.309c-1.95 0-3.751 2.36-4.688 3.983 3.352-.169 5.374-1.141 5.735-2.786a.98.98 0 0 0 .001-.421c-.03-.139-.091-.269-.176-.382s-.19-.205-.312-.272a.98.98 0 0 0-.397-.118l-.163-.003z"/><path d="M193.778 71.838a.65.65 0 0 1-.325-.087c-.098-.057-.18-.139-.237-.238l-6.057-10.442-5.77 10.059c-.043.074-.1.139-.168.191s-.145.09-.227.112-.169.028-.254.017-.166-.039-.24-.082-.139-.1-.192-.167a.65.65 0 0 1-.112-.228c-.022-.082-.028-.169-.017-.253s.039-.167.082-.241l6.892-12.029 7.188 12.393c.086.149.109.326.065.493s-.154.308-.303.395c-.096.065-.209.102-.325.107z"/><path d="M187.406 81.877a.65.65 0 0 1-.65-.65V60.453a.65.65 0 0 1 .65-.65.65.65 0 0 1 .65.65v20.774a.65.65 0 0 1-.65.65z"/></g><path d="M182.92 182.853l-79.867 9.249-.95-11.287 78.492-9.272 2.325 11.31zm5.692 24.815l-84.727 9.581-.816-12.205 82.874-9.668 2.669 12.292z" fill="#c7b8f8"/><path d="M130.406 168.645s-10.643.943-16.196-8.592c-.521-.9-1.231-1.676-2.081-2.276-1.459-1.027-3.644-1.671-5.9.907 0 0-3.667-4.853-6.375-2.08 0 0-1.931 2.448.65 6.573 0 0-4.126 1.714-.039 8.927l1.781 3.378c2.198 4.636 10.013 17.799 28.642 19.711 1.214.13 2.366.605 3.319 1.369l44.161 35.062c4.069 3.26 8.821 5.559 13.902 6.726 7.269 1.625 20.354.774 27.126-8.667 3.976-5.622 5.693-12.534 4.811-19.363l-2.051-16.678-36.782 6.028-37.129-23.281a8.26 8.26 0 0 1-2.926-3.176c-2.156-4.112-7.585-13.654-13.609-17.806l-.614-.432c-1.301-.975-2.926-1.782-4.568-1.808-2.601-.039-4.805 2.364-3.199 4.802.706 1.073 1.84 1.951 2.89 2.673a9.67 9.67 0 0 1 2.722 2.807c.706 1.111 1.179 2.355 1.387 3.655a7.64 7.64 0 0 1 .078 1.541z" fill="#fff"/><g fill="#000"><path d="M118.859 175.421a.65.65 0 0 1-.286-.069 23.77 23.77 0 0 1-4.828-3.127c-5.003-4.197-7.191-9.597-8.147-13.388a.65.65 0 1 1 1.262-.325c.907 3.606 2.984 8.736 7.721 12.712a22.38 22.38 0 0 0 4.551 2.955c.133.064.24.171.303.304a.65.65 0 0 1-.589.931l.013.007zm-4.174 5.494a.61.61 0 0 1-.29-.068c-.872-.392-1.684-.907-2.412-1.528l-.975-.783c-4.877-3.775-8.706-9.006-11.099-15.127a.65.65 0 0 1-.056-.255c-.001-.087.015-.175.049-.256a.66.66 0 0 1 .145-.216c.063-.062.137-.11.219-.142s.169-.047.257-.045a.65.65 0 0 1 .253.06c.08.037.151.09.21.155s.104.141.132.224c2.312 5.904 6.005 10.943 10.686 14.574.433.325.751.592 1.005.797a8.88 8.88 0 0 0 2.181 1.382.64.64 0 0 1 .294.306.65.65 0 0 1-.185.781c-.114.091-.256.141-.401.141h-.013zm18.979 63.453H79.002V232.57h54.662c.727.001 1.423.29 1.937.804s.803 1.21.804 1.937v6.32c-.001.726-.29 1.422-.804 1.936a2.74 2.74 0 0 1-1.937.801z"/><path d="M85.159 244.368H21.216a5.53 5.53 0 0 1-3.317-1.064c-.962-.703-1.671-1.698-2.021-2.837L.217 187.378c-1.014-3.44 1.648-6.866 5.338-6.866h60.312c1.244-.012 2.455.397 3.438 1.159s1.68 1.834 1.978 3.041l13.875 59.656zm144.224-51.174l-43.206 7.23-15.865-81.047 11.262.159a32.69 32.69 0 0 1 19.356 6.554 29.36 29.36 0 0 1 7.302 8.027 28.96 28.96 0 0 1 3.15 7.233l18.001 51.844z"/></g><path d="M248.196 99.605h-47.552a5.83 5.83 0 0 0-5.826 5.826v30.42a5.83 5.83 0 0 0 5.826 5.826h47.552a5.83 5.83 0 0 0 5.826-5.826v-30.42c0-3.217-2.608-5.826-5.826-5.826z" fill="#fff"/><g fill="#000"><path d="M248.196 142.326h-47.542c-1.718-.005-3.365-.689-4.58-1.904s-1.901-2.861-1.906-4.579v-30.41c.006-1.717.692-3.363 1.907-4.577a6.5 6.5 0 0 1 4.579-1.902h47.542a6.5 6.5 0 0 1 4.575 1.904c1.214 1.214 1.899 2.859 1.905 4.575v30.41a6.5 6.5 0 0 1-1.904 4.577c-1.213 1.215-2.858 1.9-4.576 1.906zm-47.542-42.072a5.2 5.2 0 0 0-5.176 5.179v30.41a5.18 5.18 0 0 0 5.176 5.182h47.542c1.374-.001 2.691-.547 3.663-1.519a5.18 5.18 0 0 0 1.516-3.663v-30.41a5.2 5.2 0 0 0-1.523-3.655c-.97-.97-2.284-1.518-3.656-1.524h-47.542z"/><use xlink:href="#C"/><use xlink:href="#C" y="7"/><path d="M231.525 128h-26.05c-.391 0-.766-.053-1.043-.146s-.432-.221-.432-.354.155-.26.432-.354.652-.146 1.043-.146h26.05c.391 0 .767.053 1.043.146s.432.221.432.354-.155.26-.432.354-.652.146-1.043.146zm-35.913 77.788c-.114.003-.226-.025-.325-.081l-9.672-5.338a.65.65 0 0 1-.292-.389c-.043-.162-.022-.335.059-.482a.65.65 0 0 1 .376-.307c.161-.049.334-.035.484.04l9.672 5.338a.65.65 0 0 1 .284.314c.057.134.067.282.03.423s-.121.263-.237.351a.64.64 0 0 1-.402.131h.023z"/><use xlink:href="#B" y="-44.051"/></g><path d="M67.857 120.795c6.379 0 11.551-5.172 11.551-11.551s-5.171-11.551-11.551-11.551-11.551 5.172-11.551 11.551 5.171 11.551 11.551 11.551z" fill="#fff"/><g fill="#000"><path d="M44.308 121.887H27.701c-1.535-.001-3.007-.612-4.092-1.697a5.8 5.8 0 0 1-1.698-4.093V92.225c0-1.536.61-3.01 1.695-4.096s2.558-1.698 4.095-1.7h16.616c1.535.002 3.007.612 4.092 1.698s1.696 2.557 1.698 4.092v23.872a5.8 5.8 0 0 1-.441 2.219 5.81 5.81 0 0 1-1.257 1.881 5.8 5.8 0 0 1-1.882 1.256 5.79 5.79 0 0 1-2.219.44zM27.701 87.729c-1.19.002-2.331.475-3.173 1.317s-1.315 1.982-1.317 3.173v23.872c0 .59.115 1.174.341 1.719s.556 1.041.973 1.459.912.748 1.457.975 1.129.342 1.719.343h16.616c1.19-.002 2.331-.475 3.173-1.317a4.5 4.5 0 0 0 1.317-3.173V92.225c0-.591-.116-1.176-.343-1.721a4.5 4.5 0 0 0-2.435-2.433c-.546-.226-1.131-.342-1.722-.341H27.701z"/><path d="M49.102 113.31H22.552a.65.65 0 0 1-.65-.65.65.65 0 0 1 .65-.65h26.551a.65.65 0 0 1 .65.65.65.65 0 0 1-.65.65z"/></g><g fill="#fff"><use xlink:href="#D"/><use xlink:href="#D" x="5.533"/></g><path d="M65.435 100.714c-.148-.001-.292-.052-.407-.145s-.195-.224-.226-.369c-1.691-7.802.218-13.14 2.116-16.255 2.074-3.384 4.551-4.896 4.646-4.958a.65.65 0 0 1 .892.223.65.65 0 0 1-.223.892c-.39.237-9.2 5.78-6.177 19.811a.65.65 0 0 1-.497.77.66.66 0 0 1-.124.03z" fill="#000"/><g fill="#ffc1eb"><use xlink:href="#E"/><use xlink:href="#E"/><use xlink:href="#E"/><use xlink:href="#E"/><use xlink:href="#E"/><use xlink:href="#E"/><use xlink:href="#E"/></g><path d="M70.998 83.187a2.93 2.93 0 0 0 2.929-2.929 2.93 2.93 0 0 0-2.929-2.929 2.93 2.93 0 0 0-2.929 2.929 2.93 2.93 0 0 0 2.929 2.929z" fill="#fff"/><path d="M66.023 103.289c1.549-.264 2.629-1.502 2.414-2.766s-1.646-2.074-3.194-1.81-2.629 1.503-2.414 2.767 1.646 2.074 3.194 1.809zm-3.884 15.542a.65.65 0 0 1-.345-1.2 11.67 11.67 0 0 1 5.455-1.762 11.81 11.81 0 0 1 6.827 1.72.65.65 0 1 1-.68 1.108c-1.821-1.113-3.938-1.646-6.07-1.528-1.719.111-3.382.648-4.841 1.564a.67.67 0 0 1-.348.098z" fill="#000"/><ellipse cx="38" cy="212" rx="6" ry="7" fill="#fff"/><defs><linearGradient id="A" x1="13.35" y1="0" x2="334.704" y2="-26.672" gradientUnits="userSpaceOnUse"><stop stop-color="#195ee7"/><stop offset="1" stop-color="#f93f78"/></linearGradient><path id="B" d="M91.827 166.435H13.865a.65.65 0 0 1-.65-.65.65.65 0 0 1 .65-.65h77.962a.65.65 0 0 1 .65.65.65.65 0 0 1-.65.65z"/><path id="C" d="M245.524 114h-40.048c-.392 0-.767-.053-1.044-.146s-.432-.221-.432-.354.156-.26.432-.354.652-.146 1.044-.146h40.048c.392 0 .767.053 1.044.146s.432.221.432.354-.155.26-.432.354-.652.146-1.044.146z"/><path id="D" d="M33.228 118.782c.871 0 1.577-.706 1.577-1.576s-.706-1.577-1.577-1.577-1.577.706-1.577 1.577.706 1.576 1.577 1.576z"/><path id="E" d="M80.042 79.926l-2.799-.608-.088-.458 2.445-1.372c.461-.31.789-.783.917-1.324s.049-1.11-.223-1.595-.716-.85-1.245-1.022-1.103-.139-1.608.092l-2.572 1.443c-.042.023-.075.052-.114.078l-.38-.26.566-2.617a2.21 2.21 0 0 0-1.695-2.628 2.21 2.21 0 0 0-2.628 1.695l-.566 2.601c-.219.029-.436.07-.65.124a2.91 2.91 0 0 0-.153-.254l-1.775-2.347a2.21 2.21 0 0 0-3.097-.434 2.21 2.21 0 0 0-.434 3.097l1.775 2.357c0 .02.032.032.049.052l-.172.257-2.708-.585c-.573-.124-1.172-.015-1.665.303s-.84.818-.965 1.391a2.21 2.21 0 0 0 .302 1.666 2.21 2.21 0 0 0 1.392.964l2.685.582c0 .065.016.13.026.195h-.023l-2.575 1.443c-.489.299-.843.775-.988 1.33s-.069 1.143.211 1.643.744.871 1.292 1.037 1.14.111 1.65-.15l2.575-1.444c.02 0 .032-.026.052-.036.207.173.424.332.65.478l-.562 2.601c-.069.287-.08.585-.033.877a2.21 2.21 0 0 0 .31.82c.157.25.362.466.604.636s.515.289.804.351.587.066.877.011.567-.167.813-.33.457-.374.621-.62.276-.522.331-.812l.559-2.601.484-.088 1.72 2.276c.165.253.38.47.632.637s.535.28.833.334.603.045.897-.024.571-.198.814-.378.446-.408.597-.67.247-.552.282-.852.008-.604-.079-.894-.233-.558-.428-.789l-1.528-2.032.28-.413 2.773.601a2.21 2.21 0 0 0 1.666-.302 2.21 2.21 0 0 0 .964-1.392 2.21 2.21 0 0 0-.298-1.672 2.21 2.21 0 0 0-1.396-.968z"/></defs></svg>