<svg xmlns="http://www.w3.org/2000/svg" viewBox="0 0 237 64" xmlns:v="https://vecta.io/nano"><path d="M116.866 46.366a.79.79 0 0 1 .578.238l1.36 1.462c-.997 1.066-2.085 2.022-3.263 2.872s-2.464 1.576-3.858 2.176-2.923 1.065-4.589 1.393-3.496.493-5.489.493c-3.331 0-6.385-.583-9.161-1.75s-5.155-2.821-7.138-4.963-3.53-4.73-4.639-7.767S79 34.107 79 30.391c0-3.648.572-6.979 1.716-9.993s2.753-5.602 4.827-7.767 4.555-3.841 7.444-5.03 6.079-1.785 9.568-1.785c1.745 0 3.342.131 4.793.391s2.804.635 4.062 1.121 2.441 1.094 3.552 1.818 2.198 1.564 3.263 2.516l-1.054 1.529c-.181.272-.465.408-.85.408-.204 0-.465-.119-.782-.357l-1.207-.884c-.488-.351-1.076-.736-1.768-1.156s-1.513-.804-2.464-1.155-2.051-.646-3.297-.884-2.663-.357-4.249-.357c-2.923 0-5.608.505-8.056 1.513s-4.555 2.448-6.322 4.317-3.144 4.136-4.13 6.798-1.479 5.648-1.479 8.956c0 3.399.487 6.436 1.462 9.109s2.323 4.934 4.045 6.781a17.53 17.53 0 0 0 6.102 4.249c2.345.986 4.889 1.478 7.631 1.478 1.722 0 3.257-.113 4.606-.34s2.588-.566 3.722-1.02 2.187-1.008 3.161-1.666 1.937-1.428 2.889-2.311a2.38 2.38 0 0 1 .323-.221c.102-.056.221-.085.357-.085zm12.591 8.09V5h3.229v49.456zm28.852-2.107c2.017 0 3.778-.345 5.285-1.037s2.764-1.682 3.773-2.974 1.762-2.849 2.26-4.674.748-3.869.748-6.135c0-2.243-.25-4.282-.748-6.118s-1.252-3.404-2.26-4.707a10.09 10.09 0 0 0-3.773-3.008c-1.507-.702-3.269-1.054-5.285-1.054s-3.779.352-5.285 1.054a10.08 10.08 0 0 0-3.773 3.008c-1.008 1.303-1.768 2.872-2.278 4.707s-.764 3.875-.764 6.118c0 2.266.255 4.312.764 6.135s1.269 3.382 2.278 4.674 2.266 2.283 3.773 2.974 3.268 1.037 5.285 1.037zm0-32.257c2.424 0 4.594.414 6.509 1.241s3.529 2 4.844 3.518 2.317 3.348 3.008 5.49 1.036 4.538 1.036 7.189-.346 5.042-1.036 7.172-1.694 3.954-3.008 5.472-2.929 2.685-4.844 3.501-4.085 1.224-6.509 1.224-4.595-.408-6.509-1.224-3.535-1.982-4.86-3.501-2.334-3.342-3.025-5.472-1.036-4.521-1.036-7.172.345-5.047 1.036-7.189 1.7-3.971 3.025-5.49 2.946-2.69 4.86-3.518 4.084-1.241 6.509-1.241zm42.521 4.759c-.159.318-.408.476-.748.476-.249 0-.572-.141-.969-.425s-.918-.6-1.563-.952-1.439-.668-2.379-.952-2.091-.425-3.45-.425c-1.223 0-2.34.175-3.348.526s-1.87.819-2.584 1.407-1.269 1.271-1.665 2.05a5.35 5.35 0 0 0-.595 2.458c0 1.062.272 1.944.816 2.645s1.257 1.299 2.141 1.796 1.887.926 3.008 1.288l3.45 1.086a47.69 47.69 0 0 1 3.45 1.207c1.122.442 2.125.992 3.008 1.649s1.598 1.461 2.142 2.413.816 2.107.816 3.467c0 1.473-.267 2.844-.799 4.113s-1.303 2.368-2.311 3.297-2.249 1.666-3.722 2.21-3.15.816-5.03.816c-2.379 0-4.431-.38-6.152-1.139s-3.263-1.75-4.623-2.974l.782-1.156c.113-.181.238-.317.374-.408s.328-.136.578-.136c.294 0 .657.181 1.088.544s.991.753 1.682 1.173 1.552.81 2.583 1.172 2.306.544 3.824.544c1.428 0 2.685-.198 3.773-.595s1.994-.935 2.719-1.614a6.73 6.73 0 0 0 1.648-2.396c.374-.918.561-1.886.561-2.906 0-1.133-.272-2.074-.816-2.821s-1.257-1.382-2.142-1.903-1.886-.963-3.008-1.326l-3.467-1.087c-1.189-.362-2.346-.759-3.467-1.19s-2.124-.974-3.008-1.632a7.86 7.86 0 0 1-2.141-2.396c-.544-.94-.816-2.113-.816-3.518 0-1.201.26-2.356.782-3.467s1.263-2.084 2.226-2.923 2.136-1.507 3.518-2.005 2.934-.748 4.657-.748c2.062 0 3.892.3 5.489.896s3.065 1.511 4.402 2.741zm22.236-2.345c-1.743 0-3.304.272-4.684.816a10.25 10.25 0 0 0-3.581 2.346c-1.007 1.02-1.821 2.243-2.443 3.671s-1.035 3.025-1.239 4.792h22.264c0-1.813-.249-3.438-.747-4.878s-1.199-2.657-2.104-3.654-1.991-1.762-3.258-2.294-2.67-.799-4.208-.799zm-.05-2.414c1.904 0 3.666.329 5.286.986a11.89 11.89 0 0 1 4.215 2.872c1.189 1.257 2.119 2.804 2.787 4.639s1.003 3.943 1.003 6.323c0 .499-.074.839-.221 1.02s-.379.272-.696.272h-24.406v.646c0 2.538.294 4.77.883 6.696s1.428 3.541 2.516 4.844 2.401 2.283 3.943 2.94 3.263.986 5.167.986c1.7 0 3.172-.187 4.419-.561s2.294-.793 3.144-1.257 1.524-.884 2.022-1.258.861-.561 1.088-.561c.294 0 .521.114.68.34l.884 1.088c-.544.68-1.264 1.315-2.159 1.903s-1.892 1.094-2.991 1.513-2.277.754-3.535 1.003-2.522.374-3.79.374c-2.311 0-4.419-.402-6.322-1.207a13.44 13.44 0 0 1-4.9-3.518c-1.363-1.541-2.417-3.427-3.161-5.66s-1.116-4.787-1.116-7.665c0-2.424.345-4.662 1.037-6.713s1.688-3.818 2.991-5.303 2.9-2.645 4.792-3.484 4.039-1.258 6.441-1.258z" fill="#262e39"/><g fill="#2f577e"><path d="M63.998 33.333v-2.667c0-2.276-.953-4.441-2.666-6.401-.93-1.063-2.085-2.066-3.432-2.994a26.74 26.74 0 0 0-2.462-1.495l-2.024-.996c-1.835-.827-3.862-1.551-6.045-2.15l.695 2.864.542 2.951 3.372 1.28 1.456.68.739.384c.84.452 1.614.925 2.316 1.417 2.55 1.779 4.171 3.781 4.674 5.795-.502 2.013-2.124 4.015-4.674 5.795l.727 2.135a26.74 26.74 0 0 1 .684 2.798c1.347-.927 2.502-1.931 3.432-2.994 1.714-1.96 2.666-4.125 2.666-6.401M24.979 48.948l-3.253-2.788.717 2.451 2.535.337"/><path d="M30.727 46.657l1.272.892 2.434 1.548.31.18 4.277-.329 2.534-.337 2.952-.543 2.863-.694c2.183-.6 4.211-1.323 6.045-2.15-.15-.845-.362-1.726-.637-2.64l-.251-.793-.549-1.511-3.372 1.28-2.45.718-.349.092-2.816.627-1.53.27-4.57.546-4.89.193a61.39 61.39 0 0 1-4.89-.193l3.618 2.846M11.221 21.423l.252.794.548 1.511 3.371-1.28 2.452-.717.348-.092 2.816-.627 1.53-.269 4.571-.548 4.89-.192 4.89.192-3.618-2.846-1.272-.891-2.434-1.548-.309-.181-4.277.328-2.535.337-2.95.543-2.864.695c-2.182.599-4.209 1.322-6.045 2.15a23.16 23.16 0 0 0 .637 2.64M39.02 15.06l3.253 2.788-.719-2.451-2.534-.337M2.836 31.998c.502-2.013 2.123-4.016 4.673-5.795l-.726-2.136c-.289-.955-.516-1.89-.684-2.798-1.348.927-2.503 1.931-3.433 2.994C.953 26.224 0 28.389 0 30.665v2.667c0 2.276.953 4.441 2.666 6.401.93 1.063 2.085 2.066 3.433 2.994.761.523 1.583 1.022 2.462 1.495l2.023.997c1.836.827 3.863 1.55 6.045 2.15l-.694-2.864-.543-2.951-3.371-1.28-1.456-.68-.739-.384a23.36 23.36 0 0 1-2.317-1.417c-2.55-1.779-4.171-3.781-4.673-5.795"/></g><g fill="#f4b563"><path d="M39.02 48.94l-4.277.329 2.243 1.227 2.034-1.555M55.569 10.32l-1.886-1.886c-1.61-1.609-3.815-2.466-6.412-2.641-1.409-.095-2.935.014-4.544.311a26.52 26.52 0 0 0-2.798.683l-2.135.727c-1.883.712-3.828 1.634-5.795 2.755l2.515 1.533 2.471 1.703 3.289-1.479 1.51-.549.795-.251c.914-.275 1.795-.487 2.64-.637 3.06-.545 5.622-.274 7.4.794"/><path d="M52.62 11.377c1.069 1.779 1.339 4.341.794 7.401l2.024.996a27.05 27.05 0 0 1 2.462 1.495c.296-1.609.405-3.134.31-4.544-.174-2.598-1.032-4.802-2.641-6.412-.318-.317-.659-.604-1.021-.864M41.46 43.266l1.53-.27 2.816-.627.349-.092 2.788-3.252 1.555-2.034 1.703-2.47 1.534-2.516c1.12-1.968 2.042-3.912 2.754-5.795a23.34 23.34 0 0 0-2.316-1.417l-.739-.384-1.456-.68-1.479 3.289-1.227 2.242-.181.31-1.547 2.434-.891 1.273-2.846 3.618-3.322 3.595-3.594 3.321 4.57-.546m-16.482-28.21l4.277-.328-2.244-1.227-2.033 1.555M11.377 52.623c-1.068-1.78-1.339-4.343-.793-7.402l-2.023-.997c-.879-.473-1.702-.972-2.462-1.495-.298 1.609-.405 3.134-.311 4.544.175 2.598 1.031 4.802 2.641 6.413l1.886 1.885c1.609 1.609 3.814 2.466 6.411 2.641 1.41.095 2.935-.013 4.544-.311.908-.168 1.843-.396 2.799-.683l2.135-.726c1.883-.713 3.827-1.635 5.795-2.755l-2.516-1.533-2.471-1.703-3.289 1.479-1.51.548-.794.252c-.915.275-1.795.486-2.641.637-3.06.545-5.622.274-7.401-.793M9.826 39.209l.739.384 1.456.68a36.98 36.98 0 0 1 1.479-3.289l1.226-2.242.181-.31 1.549-2.434.891-1.272 2.846-3.618 3.323-3.594 3.594-3.323-4.571.548-1.53.269-2.816.627-.348.092-2.789 3.252-1.555 2.034-1.703 2.47-1.533 2.516c-1.121 1.967-2.042 3.912-2.755 5.795a23.36 23.36 0 0 0 2.317 1.417"/></g><path d="M15.055 39.017l-.329-4.277-1.226 2.242 1.555 2.034m-3.678-27.633c1.78-1.068 4.342-1.339 7.401-.793l.997-2.023a26.47 26.47 0 0 1 1.495-2.462c-1.609-.297-3.134-.406-4.544-.311-2.598.174-4.802 1.031-6.411 2.641a8.31 8.31 0 0 0-.865 1.021 8.4 8.4 0 0 1 .865-1.021L8.429 10.32c-1.61 1.61-2.466 3.815-2.641 6.412-.094 1.41.013 2.935.311 4.544.168.908.396 1.843.684 2.798l.726 2.136c.712 1.883 1.634 3.827 2.755 5.795l1.533-2.516 1.703-2.47-1.479-3.289-.548-1.511-.252-.794a23.16 23.16 0 0 1-.637-2.64c-.546-3.06-.275-5.622.793-7.401M48.943 24.98l.329 4.277 1.227-2.242-1.555-2.034m-5.685-2.442l-.269-1.53-.627-2.816-.091-.348-3.253-2.788-2.034-1.555-2.471-1.703-2.515-1.533c-1.968-1.121-3.912-2.042-5.795-2.755a23.21 23.21 0 0 0-1.417 2.316l-.384.739-.68 1.457 3.289 1.478 2.244 1.227.309.181 2.434 1.548 1.272.891 3.618 2.846 3.594 3.323 3.322 3.594-.547-4.57M20.74 41.46l.268 1.53.626 2.816.092.349 3.253 2.788 2.033 1.555 2.471 1.703 2.516 1.533c1.967 1.12 3.911 2.042 5.795 2.755a23.29 23.29 0 0 0 1.416-2.317l.384-.739.681-1.456c-1.088-.425-2.185-.919-3.289-1.479l-2.243-1.227-.31-.18-2.434-1.548-1.272-.892-3.618-2.846-3.594-3.322-3.323-3.594.548 4.57M53.683 55.57l1.886-1.885c1.609-1.61 2.467-3.815 2.641-6.413.095-1.409-.014-2.934-.31-4.544a26.74 26.74 0 0 0-.684-2.798l-.727-2.135c-.712-1.883-1.634-3.827-2.754-5.795l-1.534 2.516-1.703 2.47 1.479 3.289.549 1.511.251.793c.275.914.487 1.796.637 2.64.545 3.059.276 5.622-.794 7.402-1.778 1.068-4.341 1.338-7.4.793l-.997 2.023a26.68 26.68 0 0 1-1.495 2.461c1.609.298 3.135.406 4.544.311 2.598-.175 4.802-1.032 6.412-2.641" fill="#5cafcd"/><path d="M17.347 30.728L16.455 32l-1.549 2.434-.181.31.329 4.277.337 2.534.543 2.951.694 2.864c.6 2.182 1.323 4.21 2.15 6.045a23.41 23.41 0 0 0 2.641-.637l.794-.252 1.51-.548-1.28-3.371-.717-2.451-.092-.349-.626-2.816-.268-1.53-.548-4.57L19.999 32l.193-4.89-2.846 3.618m31.597 8.292l-2.788 3.252 2.45-.718.338-2.534M15.055 24.982l2.789-3.252-2.452.717-.337 2.535m31.597 8.296l.891-1.273 1.547-2.434.181-.31-.329-4.277-.338-2.535-.542-2.951-.695-2.864c-.599-2.182-1.322-4.21-2.149-6.045-.845.15-1.726.362-2.64.637l-.795.251-1.51.549 1.279 3.371.719 2.451.091.348.627 2.816.269 1.53.547 4.57.193 4.89-.193 4.891 2.846-3.618M42.727 6.099c-.927-1.348-1.931-2.503-2.994-3.433C37.774.953 35.608 0 33.333 0h-2.667c-2.275 0-4.441.953-6.401 2.666-1.063.929-2.066 2.085-2.994 3.433a26.47 26.47 0 0 0-1.495 2.462l-.997 2.023c-.826 1.835-1.55 3.863-2.15 6.045l2.864-.695 2.95-.543 1.28-3.371.68-1.457.384-.739a23.21 23.21 0 0 1 1.417-2.316c1.779-2.55 3.781-4.171 5.795-4.673 2.013.503 4.016 2.124 5.795 4.673l2.135-.727M30.666 64h2.667c2.276 0 4.441-.953 6.401-2.667 1.063-.929 2.066-2.085 2.994-3.433a26.68 26.68 0 0 0 1.495-2.461l.997-2.023c.827-1.836 1.55-3.863 2.149-6.045l-2.863.694-2.952.543-1.279 3.371-.681 1.456-.384.739a23.29 23.29 0 0 1-1.416 2.317c-1.779 2.55-3.781 4.17-5.795 4.672-2.014-.503-4.016-2.123-5.795-4.672l-2.135.726-2.799.683c.928 1.348 1.93 2.504 2.994 3.433C26.225 63.046 28.39 64 30.666 64" fill="#47b178"/></svg>