<svg xmlns="http://www.w3.org/2000/svg" xmlns:xlink="http://www.w3.org/1999/xlink" viewBox="0 0 267.77 40.18"><defs><style>.cls-1,.cls-6{fill:#fff;}.cls-1,.cls-2{fill-rule:evenodd;}.cls-2{fill:#4d4d4d;}.cls-3{mask:url(#mask);}.cls-4{mask:url(#mask-2-2);}.cls-5{fill:#ffa800;}</style><mask id="mask" x="97.14" y="0" width="14.91" height="27.75" maskUnits="userSpaceOnUse"><g id="mask-2"><polygon id="path-1" class="cls-1" points="97.14 0 112.05 0 112.05 27.75 97.14 27.75 97.14 0"/></g></mask><mask id="mask-2-2" x="170.07" y="0" width="14.19" height="27.75" maskUnits="userSpaceOnUse"><g id="mask-4"><polygon id="path-3" class="cls-1" points="184.26 0 170.07 0 170.07 27.75 184.26 27.75 184.26 0"/></g></mask></defs><title>fw_CRM-linear-lightbg</title><g id="Layer_2" data-name="Layer 2"><g id="Layer_1-2" data-name="Layer 1"><g id="logo-fworks-grey"><path id="Fill-1" class="cls-2" d="M48.69,1c-5,0-6.79,3.49-6.79,6.76v2h-1a1.37,1.37,0,1,0,0,2.74h1V26.3a1.45,1.45,0,1,0,2.9,0V12.52H48a1.37,1.37,0,0,0,0-2.74H44.8v-2c0-1.83.67-4,3.89-4A1.35,1.35,0,0,0,50.06,2.4,1.36,1.36,0,0,0,48.69,1"/><path id="Fill-3" class="cls-2" d="M60,9.32a6,6,0,0,0-5,2.36v-.76a1.45,1.45,0,0,0-2.9,0V26.3a1.45,1.45,0,0,0,2.9,0V17.82c0-3.56,1.88-5.68,5-5.68a1.41,1.41,0,0,0,0-2.82"/><path id="Fill-5" class="cls-2" d="M70.32,11.92c3,0,4.54,1.69,4.61,5H65.24c.3-3.24,2.1-5,5.08-5m7.48,5a8.77,8.77,0,0,0-1.39-4.79,6.91,6.91,0,0,0-6.09-2.83c-5.11,0-8,3.4-8,9.33,0,6.12,2.91,9.36,8.42,9.36a8.63,8.63,0,0,0,6.08-2.19,1.34,1.34,0,0,0-.85-2.37,1.28,1.28,0,0,0-.82.27,6.73,6.73,0,0,1-4.41,1.58c-3.31,0-5.39-2.17-5.48-5.7H76c1.76,0,1.76-1.6,1.76-2.66"/><path id="Fill-7" class="cls-2" d="M87.6,17.11c-2.17-.75-4-1.39-4-3s2-2,3.14-2a5.14,5.14,0,0,1,4,1.52,1.34,1.34,0,0,0,2.3-.93,1.44,1.44,0,0,0-.31-.86,7.2,7.2,0,0,0-6-2.52c-3.72,0-6,1.85-6,4.82,0,3.64,3.19,4.72,6,5.67,2.13.72,4,1.34,4,2.9,0,2.13-2.37,2.45-3.78,2.45a6.19,6.19,0,0,1-4.64-1.79,1.4,1.4,0,0,0-1-.45,1.34,1.34,0,0,0-1,2.21,8.73,8.73,0,0,0,6.66,2.82c4.18,0,6.68-2,6.68-5.24,0-3.52-3.15-4.6-5.92-5.56"/><g id="Group-11"><g class="cls-3"><path id="Fill-9" class="cls-2" d="M104.84,9.25a6.07,6.07,0,0,0-4.8,2.07V1.45a1.45,1.45,0,1,0-2.9,0V26.3a1.45,1.45,0,0,0,2.9,0V17c0-3.37,1.61-5.07,4.8-5.07s4.31,1.39,4.31,4.8V26.3a1.45,1.45,0,0,0,2.9,0V16.19c0-4.61-2.43-6.94-7.21-6.94"/></g></g><path id="Fill-12" class="cls-2" d="M136.28,9.47a1.43,1.43,0,0,0-1.36,1l-4.15,11.84-3.39-11.83a1.45,1.45,0,0,0-2.73,0l-3.39,11.83-4.15-11.85a1.45,1.45,0,0,0-2.81.5,1.72,1.72,0,0,0,.13.61L120,26.81a1.41,1.41,0,0,0,1.36.94,1.46,1.46,0,0,0,1.4-1L126,15.48l3.25,11.23a1.47,1.47,0,0,0,1.41,1A1.42,1.42,0,0,0,132,26.8l5.56-15.26a1.61,1.61,0,0,0,.13-.62,1.43,1.43,0,0,0-1.45-1.45"/><path id="Fill-14" class="cls-2" d="M146.85,25.27c-3.53,0-5.25-2.19-5.25-6.7s1.77-6.65,5.25-6.65,5.26,2.24,5.26,6.65-1.72,6.7-5.26,6.7m0-16c-5.28,0-8.19,3.32-8.19,9.33s2.91,9.37,8.19,9.37,8.2-3.32,8.2-9.37-2.91-9.33-8.2-9.33"/><path id="Fill-16" class="cls-2" d="M166.29,9.32a6,6,0,0,0-5,2.36v-.76a1.45,1.45,0,1,0-2.9,0V26.3a1.45,1.45,0,1,0,2.9,0V17.82c0-3.56,1.88-5.68,5-5.68a1.41,1.41,0,0,0,0-2.82"/><g id="Group-20"><g class="cls-4"><path id="Fill-18" class="cls-2" d="M177.34,16.91l6-4.82a1.45,1.45,0,0,0,.58-1.17,1.47,1.47,0,0,0-2.43-1.09l-8.55,7V1.45a1.45,1.45,0,1,0-2.9,0V26.3a1.45,1.45,0,1,0,2.9,0v-6l2-1.64,6.56,8.41h0a1.55,1.55,0,0,0,1.25.65,1.43,1.43,0,0,0,1.45-1.45,1.34,1.34,0,0,0-.32-.9Z"/></g></g><path id="Fill-21" class="cls-2" d="M193.75,17.11c-2.17-.75-4-1.39-4-3s2-2,3.14-2a5.14,5.14,0,0,1,4,1.52,1.34,1.34,0,0,0,2.3-.93,1.44,1.44,0,0,0-.31-.86,7.22,7.22,0,0,0-6-2.52c-3.72,0-6,1.85-6,4.82,0,3.64,3.19,4.72,6,5.67,2.12.72,4,1.34,4,2.9,0,2.13-2.37,2.45-3.78,2.45a6.23,6.23,0,0,1-4.65-1.79,1.39,1.39,0,0,0-1-.45A1.34,1.34,0,0,0,186,24.22a1.39,1.39,0,0,0,.31.87A8.77,8.77,0,0,0,193,27.91c4.18,0,6.68-2,6.68-5.24,0-3.52-3.15-4.6-5.93-5.56"/><path class="cls-5" d="M17.05,40.18h0a17,17,0,0,1-17-17H0a17.05,17.05,0,0,1,17.05-17H29.84a4.27,4.27,0,0,1,4.26,4.27V23.13A17,17,0,0,1,17.05,40.18Z"/><circle class="cls-6" cx="17.03" cy="29.1" r="1.99"/><path class="cls-6" d="M17,14.9A8.08,8.08,0,0,0,9,23,8,8,0,0,0,12,29.27c0-.06,0-.11,0-.17a5,5,0,0,1,1.78-3.8A3.92,3.92,0,0,1,13,23a4,4,0,1,1,7.24,2.33A5,5,0,0,1,22,29.1c0,.06,0,.11,0,.17A8,8,0,0,0,17,14.9Z"/></g><path d="M219.84,8.16a6.7,6.7,0,0,1,5.3,2.55,1.07,1.07,0,0,0,.9.45,1.1,1.1,0,0,0,1.12-1.11,1.25,1.25,0,0,0-.24-.73A8.66,8.66,0,0,0,219.84,6c-6.32,0-9.8,3.91-9.8,11,0,7.29,3.3,11,9.8,11A8.83,8.83,0,0,0,227,24.63a1.06,1.06,0,0,0,.21-.66,1.12,1.12,0,0,0-2-.66,6.34,6.34,0,0,1-5.29,2.49c-5,0-7.38-2.8-7.38-8.81C212.46,11.13,214.94,8.16,219.84,8.16Z"/><path d="M239.3,18.5a5.85,5.85,0,0,0,5.43-6,5.91,5.91,0,0,0-6-6.05h-6.17a1.17,1.17,0,0,0-1.18,1.18v19a1.18,1.18,0,0,0,2.36,0V18.51h2.94l6.25,8.72a1.18,1.18,0,0,0,1,.55,1.16,1.16,0,0,0,1.17-1.18,1.1,1.1,0,0,0-.24-.72Zm3-6a3.66,3.66,0,0,1-3.59,3.87H233.7V8.59h5A3.66,3.66,0,0,1,242.34,12.47Z"/><path d="M266.62,6.17a1.15,1.15,0,0,0-1,.65l-7.42,13.85-7.4-13.84a1.14,1.14,0,0,0-1-.66,1.17,1.17,0,0,0-1.15,1.15V26.64a1.15,1.15,0,0,0,2.3,0V11.88l6.24,11.62a1.19,1.19,0,0,0,1.05.66,1.17,1.17,0,0,0,1-.66l6.27-11.62V26.64a1.15,1.15,0,0,0,2.3,0V7.32A1.17,1.17,0,0,0,266.62,6.17Z"/></g></g></svg>