<svg xmlns="http://www.w3.org/2000/svg" xmlns:xlink="http://www.w3.org/1999/xlink" viewBox="0 0 150 30" xmlns:v="https://vecta.io/nano"><path d="M2 1.6v11.1h11.1v11.2H24V1.6z" fill="#0c9afc"/><g fill="#0c293d"><path d="M27.5 8.4c-.9 0-.9-1.4 0-1.4H29c.3 0 .6.2.6.5v14.9h.6c.9 0 .9 1.4 0 1.4h-2.7c-.9 0-.9-1.4 0-1.4h.6v-14h-.6zM37.3 24c-3.4 0-5.9-2.6-5.9-5.9 0-3.2 2.5-5.9 5.7-5.9 3.1 0 5.1 2.6 5.2 5.8 0 .4-.2.8-.7.8h-8.8c.4 2.2 2.3 3.8 4.5 3.8.8 0 2-.2 2.7-.6.5-.3.8 0 1 .2.2.3.1.7-.3 1-1 .5-2.4.8-3.4.8zm-4.5-6.6h8c-.4-2.2-1.6-3.9-3.8-3.9-2.1 0-3.9 1.8-4.2 3.9zm20.3 6.5a.47.47 0 0 1-.5-.5V22c-.9 1.3-2.5 2.1-4.2 2.1-3.3 0-5.8-2.7-5.8-5.9s2.5-5.8 5.6-5.8 4.3 2.3 4.3 2.3V13c0-.3.2-.6.5-.6h1.2c.9 0 .9 1.4 0 1.4h-.3v8.8h.3c.9 0 .9 1.4 0 1.4h-1.1zm-4.8-10.3c-2.4 0-4.3 2-4.3 4.4s1.6 4.5 4.3 4.5c1.4 0 4.3-1.1 4.3-4.4 0-2.3-1.8-4.5-4.3-4.5z"/><use xlink:href="#B"/></g><g fill="#0c9afc"><path d="M76.4 12.2c.3 0 .7.2.7.6v2.6c0 .4-.3.6-.7.6s-.7-.3-.7-.6c0-1.3-1.2-2-2.5-2-1.1 0-2.5.6-2.5 1.9 0 1.1 1.1 1.7 3.1 2.1 1.8.4 3.6.9 3.6 3.1 0 2.1-2.1 3.4-4 3.4-1.1 0-2.3-.4-2.9-1.2v.6c0 .4-.4.6-.7.6s-.7-.2-.7-.6v-2.8c0-.4.4-.7.7-.7.4 0 .8.3.8.7 0 1.5 1.5 2.1 2.8 2.1 1.1 0 2.6-.8 2.6-2.1s-1.5-1.6-2.6-1.8c-2.8-.6-4.1-1.6-4.1-3.4 0-2 1.9-3.1 3.7-3.1 1.1 0 2.1.5 2.7 1.1v-.5c0-.5.3-.6.7-.6zm13.7.1c.9 0 .9 1.4 0 1.4h-.3V27h.3c.9 0 .9 1.4 0 1.4H89c-.3 0-.5-.2-.5-.6v-6.3s-1.2 2.3-4.3 2.3c-3.2 0-5.6-2.7-5.6-5.8 0-3.2 2.5-5.9 5.8-5.9 1.7 0 3.2.9 4.2 2.2v-1.5a.47.47 0 0 1 .5-.5h1zm-5.9 1.2c-2.7 0-4.4 2.1-4.3 4.5 0 2.4 1.9 4.4 4.3 4.4 2.5 0 4.2-2.2 4.2-4.5 0-3.3-2.7-4.4-4.2-4.4zm16.8.1c-.9 0-.9-1.4 0-1.4h1.3c.3 0 .6.2.6.5v9.7h.5c.9 0 .9 1.4 0 1.4H102c-.3 0-.6-.2-.6-.6V22c-.9 1.3-2.4 1.8-3.9 1.8-3.3 0-4.9-2.2-4.9-5.1v-5.1h-.5c-.9 0-.9-1.4 0-1.4h1.3c.3 0 .6.2.6.5v6c0 2.1 1.1 3.7 3.6 3.7 2.2 0 3.9-1.2 3.9-3.9v-4.9h-.5zm14.3 10.3a.47.47 0 0 1-.5-.5V22c-.9 1.3-2.5 2.1-4.2 2.1-3.3 0-5.8-2.7-5.8-5.9s2.5-5.8 5.6-5.8 4.3 2.3 4.3 2.3V13c0-.3.2-.6.5-.6h1.2c.9 0 .9 1.4 0 1.4h-.3v8.8h.3c.9 0 .9 1.4 0 1.4h-1.1zm-4.8-10.3c-2.4 0-4.3 2-4.3 4.4s1.6 4.5 4.3 4.5c1.4 0 4.3-1.1 4.3-4.4.1-2.3-1.7-4.5-4.3-4.5zm10 9.7a.47.47 0 0 1-.5.5h-1.1c-.9 0-.9-1.4 0-1.4h.3v-8.8h-.3c-.9 0-.9-1.4 0-1.4h1.1c.3 0 .5.2.5.6v1.4c1-1.5 2.4-2 4.1-2 .4 0 .7.2.7.7 0 .7-.7.7-.7.7h-.1c-1.8 0-4 1-4 3.4v6.3zm10.4.7c-3.4 0-5.9-2.6-5.9-5.9 0-3.2 2.5-5.9 5.7-5.9 3.1 0 5.1 2.6 5.2 5.8 0 .4-.2.8-.7.8h-8.8c.4 2.2 2.3 3.8 4.5 3.8.8 0 2-.2 2.7-.6.5-.3.8 0 1 .2.2.3.1.7-.3 1-.9.5-2.4.8-3.4.8zm-4.5-6.6h8c-.4-2.2-1.6-3.9-3.8-3.9-2.1 0-3.9 1.8-4.2 3.9z"/><use xlink:href="#B" x="80.6"/></g><path d="M13.1 23.9H2V12.7z" fill="#0c293d"/><defs ><path id="B" d="M66.1 23.9a.47.47 0 0 1-.5-.5V22c-.9 1.3-2.5 2.1-4.2 2.1-3.3 0-5.8-2.7-5.8-5.9s2.5-5.8 5.6-5.8 4.3 2.3 4.3 2.3V8.4h-.3c-.9 0-.9-1.4 0-1.4h1.2c.3 0 .5.2.5.6v14.9h.3c.9 0 .9 1.4 0 1.4h-1.1zm-4.8-10.3c-2.4 0-4.3 2-4.3 4.4s1.6 4.5 4.3 4.5c1.4 0 4.2-1.1 4.2-4.4 0-2.3-1.7-4.5-4.2-4.5z"/></defs></svg>