<svg xmlns="http://www.w3.org/2000/svg" xmlns:xlink="http://www.w3.org/1999/xlink" viewBox="0 0 1640 608" preserveAspectRatio="xMidYMid meet" xmlns:v="https://vecta.io/nano"><style><![CDATA[.B{color-interpolation-filters:sRGB}]]></style><defs><clipPath id="A"><path d="M0 0h1640v608H0z"/></clipPath><filter  x="0%" y="0%" width="100%" height="100%"><feColorMatrix values="0 0 0 0 1 0 0 0 0 0.800000011920929 0 0 0 0 0 0 0 0 1 0" class="B"/></filter><filter  x="0%" y="0%" width="100%" height="100%"><feColorMatrix values="0 0 0 0 0.0313725508749485 0 0 0 0 0.6549019813537598 0 0 0 0 0.25882354378700256 0 0 0 1 0" class="B"/></filter><filter  x="0%" y="0%" width="100%" height="100%"><feColorMatrix values="0 0 0 0 0.9764705896377563 0 0 0 0 0.2823529541492462 0 0 0 0 0.2235294133424759 0 0 0 1 0" class="B"/></filter><path id="E" d="M402.835 152.055h-42.38v45.06h42.38v-45.06z"/></defs><g clip-path="url(#A)" fill="#26292c"><path d="M265.48 213.284c45.9 0 76.76 36.36 76.76 90.46 0 53.26-32.52 90.44-78.98 90.44-22.16 0-36.36-9.48-43.78-16.36.06 1.64.08 3.46.08 5.4v72.24h-47.54v-192.44c0-2.8-.9-3.68-3.66-3.68H152v-42.14h39.9c18.36 0 23.06 9.34 23.96 16.54 7.46-8.34 22.92-20.46 49.62-20.46zm-46.88 91.44c0 22.92 11.64 47.66 37.24 47.66 18.98 0 38.16-14.82 38.16-48 0-29.08-15.08-48.62-37.54-48.62-18.3 0-37.86 12.86-37.86 48.96zm187.49 40.077c0 2.64 1.02 3.7 3.66 3.7h16.36v41.76h-42.54c-17.08 0-25.04-8.12-25.04-25.62v-101.62c0-2.78-.9-3.68-3.66-3.68h-16.36v-42.14h42.5c16.86 0 25.08 8.4 25.08 25.62v101.98z"/><use xlink:href="#E"/><use xlink:href="#E"/><path d="M530.316 213.284c45.88 0 76.72 36.36 76.72 90.46 0 53.26-32.48 90.44-78.96 90.44-22.14 0-36.4-9.48-43.78-16.36.06 1.64.1 3.46.1 5.4v72.24h-47.58v-192.44c0-2.8-.9-3.68-3.64-3.68h-16.36v-42.14h39.92c18.36 0 23.04 9.34 23.92 16.54 7.5-8.34 22.92-20.46 49.66-20.46zm-9.7 139.1c19.02 0 38.2-14.82 38.2-48 0-29.08-15.08-48.62-37.54-48.62-18.32 0-37.88 12.86-37.88 48.96 0 22.92 11.68 47.66 37.22 47.66zm175.921-139.087c45.68 0 76.38 33.08 76.38 82.3 0 5-.92 15.22-1 15.64l-.28 3.14h-112.76c4.12 23.02 21.56 37.7 45.4 37.7 24.82 0 43.62-17.48 43.82-17.64l3.08-2.94 20.72 34.7-1.92 1.9c-1.08 1.08-26.68 26.1-68.58 26.1-53.26 0-91.92-38.04-91.92-90.44 0-53.26 35.82-90.46 87.06-90.46zm-35.89 65.48h63.16c-1.94-15.62-12.96-26.62-27.28-26.62-17.82 0-30.72 9.64-35.88 26.62zm285.225 66.021c0 2.64 1.02 3.7 3.64 3.7h16.02v41.76h-41.2c-17.78 0-22.58-9.46-23.54-16.92-7.38 8.56-22.5 20.86-48.74 20.86-45.9 0-76.74-36.34-76.74-90.46 0-53.26 32.2-90.46 78.34-90.46 23.6 0 37.3 8.42 44.32 14.8v-30.2c0-2.8-.9-3.68-3.66-3.68h-16.36v-42.16h42.5c17.08 0 25.42 8.4 25.42 25.62v167.14zm-84.81 7.59c18.3 0 37.88-12.84 37.88-48.96 0-23.74-11.52-47.66-37.22-47.66-22.68 0-37.9 19.26-37.9 47.98 0 29.54 14.64 48.64 37.24 48.64zm210.285-137.469a52.85 52.85 0 0 1 7.99.7l2.9.48v47.7l-3.99-.6c-.06-.02-4.03-.6-9.47-.6-15.4 0-34.43 8.5-41.59 32.38-2.24 8.14-3.39 16.92-3.39 26.04v69.24h-47.55v-127.24c0-2.78-.92-3.68-3.66-3.68h-16.35v-42.14h40.88c16.84 0 25.41 7.98 25.41 23.66v3.94c10.8-18.36 29.02-29.88 48.82-29.88zm78.557 129.882c0 2.64 1.02 3.7 3.64 3.7h16.4v41.76h-42.52c-17.1 0-25.08-8.12-25.08-25.62v-101.62c0-2.78-.88-3.68-3.66-3.68h-12.28v-42.14h38.44c16.86 0 25.06 8.4 25.06 25.62v101.98zm-3.244-192.746h-42.38v45.06h42.38v-45.06z"/><path d="M1146.66 152.055h-42.38v45.06h42.38v-45.06zm182.755 65.149h-25.36c-14.84 0-22.78 5.18-27.48 17.92l-31 87.38c-1.08 3.24-2.08 6.88-2.94 10.36-.9-3.48-1.96-7.18-3.14-10.42l-31-87.34c-4.76-12.88-12.44-17.9-27.46-17.9h-26.98v42.14h7c3.72 0 4.92 1.28 5.8 3.62l47.98 127.3h53.48l47.98-127.3c.88-2.34 2.1-3.62 5.82-3.62h7.3v-42.14zm81.868-3.907c45.72 0 76.44 33.08 76.44 82.3 0 5-.96 15.22-1.02 15.64l-.26 3.14h-112.8c4.14 23.02 21.58 37.7 45.42 37.7 24.74 0 43.62-17.48 43.78-17.64l3.16-2.94 20.68 34.7-1.94 1.9c-1.06 1.08-26.68 26.1-68.6 26.1-53.26 0-91.88-38.04-91.88-90.44 0-53.26 35.8-90.46 87.02-90.46zm-35.86 65.48h63.16c-1.94-15.62-12.94-26.62-27.3-26.62-17.8 0-30.64 9.64-35.86 26.62z"/></g></svg>